<?xml version="1.0" encoding="UTF-8"?>
<svg version="1.1" xmlns="http://www.w3.org/2000/svg" width="500" height="500">
<path d="M0 0 C165 0 330 0 500 0 C500 165 500 330 500 500 C335 500 170 500 0 500 C0 335 0 170 0 0 Z " fill="#F9F9F9" transform="translate(0,0)"/>
<path d="M0 0 C9.81498763 -0.06987204 19.62991494 -0.12299861 29.44510174 -0.15543652 C34.00393725 -0.1710143 38.56260112 -0.19210626 43.12133789 -0.22631836 C47.53043591 -0.25919596 51.93937006 -0.27691213 56.34858131 -0.28463173 C58.02088814 -0.29012476 59.69318719 -0.3008494 61.3654232 -0.31719017 C82.84128221 -0.51847735 103.63353464 4.61791382 119.7734375 19.6171875 C129.20096933 29.70630051 139 44.81878171 139 59 C131.08 59 123.16 59 115 59 C114.4121875 55.1946875 114.4121875 55.1946875 113.8125 51.3125 C111.14479511 35.57213477 105.36288862 20.55756272 92 11 C84.26915357 6.58237347 76.06117122 4.79986705 67.21875 4.5859375 C65.93935547 4.55032715 64.65996094 4.5147168 63.34179688 4.47802734 C61.74400391 4.44402832 60.14621094 4.4100293 58.5 4.375 C53.385 4.25125 48.27 4.1275 43 4 C43 22.15 43 40.3 43 59 C35.41 59 27.82 59 20 59 C20 40.85 20 22.7 20 4 C13.4 4 6.8 4 0 4 C0 2.68 0 1.36 0 0 Z " fill="#070707" transform="translate(105,171)"/>
<path d="M0 0 C7.59 0 15.18 0 23 0 C23 17.82 23 35.64 23 54 C28.506875 53.938125 34.01375 53.87625 39.6875 53.8125 C42.25084106 53.80246948 42.25084106 53.80246948 44.8659668 53.79223633 C57.47918917 53.61163649 69.68954285 51.3318605 79 42 C89.07109373 30.1401232 91.93521623 15.91232725 94 1 C101.92 1 109.84 1 118 1 C114.32479177 19.37604113 106.1159695 35.00595963 90.625 46 C74.53599886 56.37142222 57.41200431 58.47554323 38.7890625 58.29296875 C37.08271665 58.28735777 35.37636589 58.2830948 33.67001343 58.28010559 C29.22800823 58.26877481 24.78630797 58.23941242 20.34442139 58.20599365 C15.79215619 58.17503559 11.23984063 58.16154585 6.6875 58.14648438 C-2.20846565 58.1145286 -11.10420725 58.063479 -20 58 C-20 56.68 -20 55.36 -20 54 C-13.4 54 -6.8 54 0 54 C0 36.18 0 18.36 0 0 Z " fill="#070707" transform="translate(125,269)"/>
<path d="M0 0 C1.48703178 -0.00639748 1.48703178 -0.00639748 3.00410461 -0.01292419 C4.64907928 -0.01224442 4.64907928 -0.01224442 6.32728577 -0.0115509 C7.47514053 -0.01490952 8.6229953 -0.01826813 9.80563354 -0.02172852 C13.62153692 -0.03127169 17.43739658 -0.03318329 21.25331116 -0.03425598 C23.89268004 -0.03746614 26.53204874 -0.04083002 29.17141724 -0.04434204 C34.71230862 -0.05074469 40.25318806 -0.05222374 45.79408264 -0.05158997 C52.20553507 -0.05098901 58.61690341 -0.06154266 65.02833456 -0.07733363 C71.18728925 -0.09196439 77.34620346 -0.0955786 83.50517464 -0.09498024 C86.12993781 -0.09616452 88.75470152 -0.10061115 91.37945366 -0.10831261 C95.04312593 -0.11805575 98.70657909 -0.11525698 102.37025452 -0.10920715 C104.01219284 -0.11763641 104.01219284 -0.11763641 105.68730164 -0.12623596 C107.17856316 -0.11994423 107.17856316 -0.11994423 108.69995117 -0.11352539 C109.56698134 -0.11407016 110.43401152 -0.11461493 111.32731533 -0.1151762 C113.41346741 0.13371277 113.41346741 0.13371277 115.41346741 2.13371277 C115.82411194 4.29411316 115.82411194 4.29411316 116.04627991 6.98136902 C116.1722052 8.46733582 116.1722052 8.46733582 116.30067444 9.98332214 C116.37914612 11.04357605 116.4576178 12.10382996 116.53846741 13.19621277 C116.6233844 14.27064636 116.70830139 15.34507996 116.79579163 16.45207214 C117.45503069 25.36042139 117.6317834 34.20701454 117.41346741 43.13371277 C116.09346741 43.13371277 114.77346741 43.13371277 113.41346741 43.13371277 C113.19432678 42.11793152 112.97518616 41.10215027 112.74940491 40.05558777 C110.21753368 28.86075874 106.97506143 17.28761184 98.41346741 9.13371277 C88.17322806 3.3284135 88.17322806 3.3284135 65.41346741 4.13371277 C65.41346741 22.28371277 65.41346741 40.43371277 65.41346741 59.13371277 C58.15346741 59.13371277 50.89346741 59.13371277 43.41346741 59.13371277 C43.41346741 40.65371277 43.41346741 22.17371277 43.41346741 3.13371277 C23.97469943 2.37100609 23.97469943 2.37100609 9.05799866 10.10636902 C0.33676015 20.05490335 -2.46873883 30.37529669 -4.58653259 43.13371277 C-6.23653259 43.13371277 -7.88653259 43.13371277 -9.58653259 43.13371277 C-9.71629707 34.96678961 -9.33638756 26.90047974 -8.71153259 18.75871277 C-8.59358337 17.03588074 -8.59358337 17.03588074 -8.47325134 15.27824402 C-8.38946228 14.17093933 -8.30567322 13.06363464 -8.21934509 11.92277527 C-8.14602966 10.92971375 -8.07271423 9.93665222 -7.99717712 8.91349792 C-7.09205343 2.78642395 -6.23376597 0.01205421 0 0 Z " fill="#050505" transform="translate(262.58653259277344,170.8662872314453)"/>
<path d="M0 0 C7.26 0 14.52 0 22 0 C22 16.83 22 33.66 22 51 C28.6 51 35.2 51 42 51 C42 52.32 42 53.64 42 55 C21.54 55 1.08 55 -20 55 C-20 54.01 -20 53.02 -20 52 C-13.4 52 -6.8 52 0 52 C0 34.84 0 17.68 0 0 Z " fill="#050505" transform="translate(306,269)"/>
<path d="M0 0 C7.15789474 -0.35789474 7.15789474 -0.35789474 10.5 1.0625 C12 3 12 3 12.5 6.5 C12 10 12 10 10.5 11.9375 C6.87802345 13.47684003 3.92037077 13.19601854 0 13 C0 8.71 0 4.42 0 0 Z " fill="#050505" transform="translate(282,242)"/>
<path d="M0 0 C7.15789474 -0.35789474 7.15789474 -0.35789474 10.5 1.0625 C12 3 12 3 12.5 6.5 C12 10 12 10 10.5 11.9375 C6.87802345 13.47684003 3.92037077 13.19601854 0 13 C0 8.71 0 4.42 0 0 Z " fill="#050505" transform="translate(162,242)"/>
<path d="M0 0 C7.26325581 -0.3572093 7.26325581 -0.3572093 10.0625 1 C11.62341498 4.32995197 10.56822372 7.42019058 10 11 C10.33 11.66 10.66 12.32 11 13 C9.0625 12.625 9.0625 12.625 7 12 C6.67 11.34 6.34 10.68 6 10 C5.01 9.67 4.02 9.34 3 9 C3 10.32 3 11.64 3 13 C2.01 13 1.02 13 0 13 C0 8.71 0 4.42 0 0 Z " fill="#272727" transform="translate(321,242)"/>
<path d="M0 0 C3 0 3 0 4.38671875 1.3125 C5.59114583 2.875 6.79557292 4.4375 8 6 C8.33 4.02 8.66 2.04 9 0 C9.99 0 10.98 0 12 0 C12 4.29 12 8.58 12 13 C7.40962044 11.85240511 6.66330818 10.70960782 4 7 C3.67 8.98 3.34 10.96 3 13 C2.01 13 1.02 13 0 13 C0 8.71 0 4.42 0 0 Z " fill="#1C1C1C" transform="translate(261,242)"/>
<path d="M0 0 C3.3 0 6.6 0 10 0 C10 0.99 10 1.98 10 3 C7.69 3 5.38 3 3 3 C3 3.66 3 4.32 3 5 C4.98 5 6.96 5 9 5 C9 5.99 9 6.98 9 8 C7.02 8 5.04 8 3 8 C3 8.99 3 9.98 3 11 C5.31 11 7.62 11 10 11 C10 11.66 10 12.32 10 13 C6.7 13 3.4 13 0 13 C0 8.71 0 4.42 0 0 Z " fill="#262626" transform="translate(303,242)"/>
<path d="M0 0 C3.3 0 6.6 0 10 0 C10 0.99 10 1.98 10 3 C7.69 3 5.38 3 3 3 C3 3.66 3 4.32 3 5 C4.98 5 6.96 5 9 5 C9 5.99 9 6.98 9 8 C7.02 8 5.04 8 3 8 C3 8.99 3 9.98 3 11 C5.31 11 7.62 11 10 11 C10 11.66 10 12.32 10 13 C6.7 13 3.4 13 0 13 C0 8.71 0 4.42 0 0 Z " fill="#262626" transform="translate(183,242)"/>
<path d="M0 0 C0.99 0 1.98 0 3 0 C3.99 2.31 4.98 4.62 6 7 C8.22189824 4.77810176 8.92598892 2.91517292 10 0 C10.99 0 11.98 0 13 0 C12.54554036 1.41791408 12.08625056 2.83428046 11.625 4.25 C11.36976563 5.03890625 11.11453125 5.8278125 10.8515625 6.640625 C10.04826333 8.86627958 9.10288338 10.90931672 8 13 C6.140625 12.80859375 6.140625 12.80859375 4 12 C2.734375 9.78515625 2.734375 9.78515625 1.75 7.0625 C1.41484375 6.16660156 1.0796875 5.27070313 0.734375 4.34765625 C0 2 0 2 0 0 Z " fill="#1D1D1D" transform="translate(200,242)"/>
<path d="M0 0 C2.375 -0.125 2.375 -0.125 5 0 C5.66 0.66 6.32 1.32 7 2 C6.625 4.625 6.625 4.625 6 7 C4.02 7.33 2.04 7.66 0 8 C0 5.36 0 2.72 0 0 Z " fill="#E7E7E7" transform="translate(285,245)"/>
<path d="M0 0 C2.375 -0.125 2.375 -0.125 5 0 C5.66 0.66 6.32 1.32 7 2 C6.625 4.625 6.625 4.625 6 7 C4.02 7.33 2.04 7.66 0 8 C0 5.36 0 2.72 0 0 Z " fill="#E7E7E7" transform="translate(165,245)"/>
<path d="M0 0 C7.15789474 -0.35789474 7.15789474 -0.35789474 10.5 1.0625 C12 3 12 3 12.5625 6.5 C12 10 12 10 9.5 11.9375 C8.675 12.288125 7.85 12.63875 7 13 C7 12.01 7 11.02 7 10 C7.66 10 8.32 10 9 10 C9 8.35 9 6.7 9 5 C8.071875 4.731875 7.14375 4.46375 6.1875 4.1875 C3.23759634 3.08851629 1.94384814 2.37581439 0 0 Z " fill="#242424" transform="translate(282,242)"/>
<path d="M0 0 C7.15789474 -0.35789474 7.15789474 -0.35789474 10.5 1.0625 C12 3 12 3 12.5625 6.5 C12 10 12 10 9.5 11.9375 C8.675 12.288125 7.85 12.63875 7 13 C7 12.01 7 11.02 7 10 C7.66 10 8.32 10 9 10 C9 8.35 9 6.7 9 5 C8.071875 4.731875 7.14375 4.46375 6.1875 4.1875 C3.23759634 3.08851629 1.94384814 2.37581439 0 0 Z " fill="#242424" transform="translate(162,242)"/>
<path d="M0 0 C3.3 0 6.6 0 10 0 C10 0.66 10 1.32 10 2 C8.68 2 7.36 2 6 2 C6 5.3 6 8.6 6 12 C5.34 12 4.68 12 4 12 C4 8.7 4 5.4 4 2 C2.68 2 1.36 2 0 2 C0 1.34 0 0.68 0 0 Z " fill="#080808" transform="translate(231,243)"/>
<path d="M0 0 C0.99 0 1.98 0 3 0 C3 4.29 3 8.58 3 13 C2.01 13 1.02 13 0 13 C0 8.71 0 4.42 0 0 Z " fill="#1D1D1D" transform="translate(249,242)"/>
<path d="M0 0 C1.98 0 3.96 0 6 0 C4.68 0.33 3.36 0.66 2 1 C2 2.98 2 4.96 2 7 C2.99 7.33 3.98 7.66 5 8 C4.01 8 3.02 8 2 8 C2 9.32 2 10.64 2 12 C1.34 12 0.68 12 0 12 C0 8.04 0 4.08 0 0 Z " fill="#000000" transform="translate(322,243)"/>
<path d="M0 0 C1.65 0 3.3 0 5 0 C5 1.32 5 2.64 5 4 C3.35 4 1.7 4 0 4 C0 2.68 0 1.36 0 0 Z " fill="#E6E6E6" transform="translate(324,245)"/>
</svg>
